<?xml version="1.0" encoding="UTF-8"?>
<svg width="834px" height="255px" viewBox="327 527 834 255" xmlns="http://www.w3.org/2000/svg" xmlns:xlink="http://www.w3.org/1999/xlink" version="1.1">
 <!-- Generated by Pixelmator Pro 1.1.3 -->
 <path id="path" d="M1151.957 781.065 C1159.975 781.065 1159.975 696.163 1159.975 683.798 1159.975 628.928 1147.698 566.738 1138.177 566.738 L1105.356 556.738 C1103.852 556.738 1096.336 554.965 1096.336 558.314 1096.336 561.663 1118.384 607.5 1118.384 631.973 1118.384 642.792 1108.613 639.959 1096.336 639.959 1062.261 639.959 1061.5 633.06 1054.495 629.687 1051.108 628.056 1048.481 620.504 1048.481 614.064 1048.481 586.758 1065.519 550.405 1065.519 547.056 1065.519 543.965 1059.505 544.738 1058.002 544.738 L1023.928 540.738 C1011.901 540.738 1006.891 653.993 1006.891 672.798 1006.891 683.875 1006.891 758.066 1013.906 758.066 L1050.736 763.066 C1052.741 763.066 1058.754 766.096 1058.754 762.49 1058.754 761.459 1058.253 758.656 1057.752 757.625 1050.736 740.623 1047.479 714.53 1047.479 695.983 1047.479 666.1 1074.538 674.735 1099.843 674.735 1116.63 674.735 1123.395 680.66 1123.395 698.178 1123.395 723.681 1117.129 740.895 1108.36 764.595 1107.859 765.625 1107.608 768.914 1107.608 770.202 1107.608 774.323 1113.373 777.066 1115.878 777.066 Z M922.48 754.552 C957.556 754.552 986.119 732.648 986.119 694.953 986.119 692.406 984.114 672.03 980.606 672.03 978.351 672.03 974.844 709.216 934.005 709.216 912.207 709.216 879.636 689.604 879.636 640.957 879.636 609.12 890.17 570.169 926.75 570.169 958.569 570.169 944.789 594.111 955.061 594.111 970.846 594.111 982.752 585.585 980.868 570.933 977.331 543.426 947.265 532.867 925.497 534.002 864.612 537.178 837.146 595.399 839.047 650.635 840.825 702.262 865.605 754.552 922.48 754.552 Z M785.174 528.069 C782.919 528.069 775.653 527.255 775.653 531.598 775.653 536.485 787.93 542.189 787.93 612.773 787.93 687.157 760.871 690.686 748.343 690.686 733.561 690.686 713.016 671.683 713.016 610.058 713.016 547.619 725.544 537.842 725.544 531.598 725.544 528.069 722.537 528.069 720.031 528.069 L685.205 531.069 C681.948 531.069 672.428 531.601 672.428 618.474 672.428 699.645 701.24 739.008 748.343 739.008 801.96 739.008 824.509 690.957 824.509 611.144 824.509 513.413 814.738 531.069 809.727 531.069 Z M587.491 754.56 C637.523 741.17 654.894 710.629 654.894 666.566 654.894 601.109 625.603 524.555 578.964 529.01 532.289 533.469 492.033 604.109 492.033 669.566 492.033 713.629 511.826 754.56 562.436 754.56 Z M573.964 709.224 C547.466 711.017 532.621 699.762 532.621 669.963 532.621 613.674 562.177 572.683 578.964 571.271 595.691 569.864 613.306 602.674 613.306 658.963 613.306 688.762 600.521 707.427 573.964 709.224 Z M410.868 770 C445.944 770 474.506 747.652 474.506 709.193 474.506 706.594 472.502 685.806 468.995 685.806 466.74 685.806 463.232 723.745 422.393 723.745 400.595 723.745 368.024 703.736 368.024 654.102 368.024 621.62 386.558 578.901 423.138 578.901 454.957 578.901 441.177 599.327 451.45 599.327 467.234 599.327 477.256 590.752 477.256 575.68 477.256 547.615 443.682 543 421.885 543 361.002 543 327.44 607.587 327.44 663.977 327.44 716.469 353.994 770 410.868 770 Z" fill="#ff2600" fill-opacity="1" stroke="none"/>
</svg>
