<?xml version="1.0" encoding="UTF-8"?>
<svg width="1077px" height="317px" viewBox="207 507 1077 317" xmlns="http://www.w3.org/2000/svg" xmlns:xlink="http://www.w3.org/1999/xlink" version="1.1">
 <!-- Generated by Pixelmator Pro 1.1.3 -->
 <g id="new-group">
  <path id="path" d="M1275.167 756.016 C1277.207 756.016 1282.457 755.083 1282.457 750.013 1282.457 747.345 1270.067 706.252 1267.517 706.252 1263.437 706.252 1253.067 723.862 1236.237 723.862 1221.957 723.862 1214.817 708.387 1214.817 687.041 1214.817 660.626 1227.397 650.753 1236.067 650.753 1242.697 650.753 1249.157 656.09 1250.857 656.09 1252.897 656.09 1262.417 612.598 1262.417 612.331 1262.417 607.795 1256.807 606.728 1254.767 606.728 1240.487 606.728 1228.417 619.268 1222.977 619.268 1218.217 619.268 1217.537 609.663 1217.537 604.06 1217.537 578.445 1229.947 567.505 1241.677 567.505 1258.337 567.505 1263.437 580.046 1266.327 580.046 1268.537 580.046 1279.417 562.691 1279.417 560.556 1279.417 555.22 1273.297 550.02 1271.257 550.02 L1204.277 536.02 C1199.347 536.02 1189.997 659.292 1189.997 695.046 1190.847 749.21 1188.127 771.549 1197.137 771.016 1197.137 771.016 1217.102 758.654 1228.345 756.094 1243.563 752.63 1275.167 756.016 1275.167 756.016 Z" fill="#ff2600" fill-opacity="1" stroke="none"/>
  <path id="path-1" d="M1121.721 822.051 C1145.52 822.051 1175.901 769.417 1175.901 727.005 1175.901 724.14 1174.54 696.214 1172.161 696.214 1170.63 696.214 1156.25 767.053 1128.54 767.053 1113.75 767.053 1103.651 720.987 1103.651 666.254 1103.651 630.433 1108.191 569.734 1133.01 569.734 1154.6 569.734 1151.25 599.672 1158.221 599.672 1168.931 599.672 1175.731 590.215 1175.731 573.594 1175.731 542.645 1144.951 532.042 1130.161 532.042 1088.85 532.042 1076.11 622.958 1076.11 685.143 1076.11 743.029 1083.13 822.051 1121.721 822.051 Z" fill="#ff2600" fill-opacity="1" stroke="none"/>
  <path id="path-2" d="M1039.552 524.032 C1038.022 524.032 1033.092 522.087 1033.092 527.129 1033.092 532.802 1041.422 574.483 1041.422 656.427 1041.422 742.784 1023.062 753.881 1014.562 753.881 1004.532 753.881 990.592 724.819 990.592 653.276 990.592 580.786 999.092 528.378 999.092 521.129 999.092 517.032 997.052 517.032 995.352 517.032 L971.722 513.032 C969.512 513.032 963.052 562.191 963.052 663.046 963.052 757.282 985.602 817.98 1017.562 817.98 1053.942 817.98 1066.242 747.196 1066.242 654.536 1066.242 541.075 1059.612 529.032 1056.212 529.032 Z" fill="#ff2600" fill-opacity="1" stroke="none"/>
  <path id="path-3" d="M943.421 808.801 C948.52 808.801 951.83 807.306 951.83 723.209 951.83 577.063 902.971 513.022 897.36 513.022 889.88 513.022 844.391 594.701 844.391 729.508 844.391 770.454 846.77 798.801 855.441 798.801 L879.75 798.801 C881.961 798.801 882.981 798.486 882.981 796.597 882.981 791.872 871.931 765.1 871.931 740.217 871.931 704.31 896.58 699.271 912.05 699.271 919.701 699.271 927.01 704.626 927.01 718.799 927.01 754.706 916.921 789.203 916.921 798.022 916.921 802.746 925.85 804.801 927.38 804.801 Z M899.04 561.882 C905.5 561.882 922.08 626.828 922.08 646.356 922.08 655.175 919.36 656.75 913.411 656.75 898.451 656.75 881.961 664.939 878.901 664.939 876.86 664.939 875.671 662.735 875.671 658.955 875.671 635.962 889.86 561.882 899.04 561.882 Z" fill="#ff2600" fill-opacity="1" stroke="none"/>
  <path id="path-4" d="M811.904 585.728 C816.664 585.728 825.504 566.54 825.504 557.866 825.504 548.883 807.994 510.031 783.344 510.031 748.834 510.031 739.144 554.328 739.144 580.348 739.144 606.678 739.224 644.345 776.454 665.41 786.314 670.985 805.614 695.278 805.614 717.891 805.614 737.097 794.394 747.319 781.474 747.319 744.924 747.319 747.814 684.436 744.924 684.436 743.224 684.436 734.554 699.925 734.554 726.255 734.554 775.508 759.034 799.051 783.174 799.051 819.044 799.051 833.154 754.754 833.154 718.821 833.154 689.393 825.844 653.106 790.144 631.422 780.794 625.537 763.964 616.863 763.964 594.56 763.964 576.594 772.844 545.849 781.344 545.849 799.024 545.849 807.654 585.728 811.904 585.728 Z" fill="#ff2600" fill-opacity="1" stroke="none"/>
  <path id="path-5" d="M721.12 802.901 C723.161 802.901 727.411 804.184 727.411 798.09 727.411 794.883 716.02 740.678 713.47 740.678 709.391 740.678 699.02 761.847 682.191 761.847 667.911 761.847 660.77 743.244 660.77 717.584 660.77 685.831 673.35 673.964 682.02 673.964 688.651 673.964 695.11 680.379 696.81 680.379 698.85 680.379 708.37 628.098 708.37 627.777 708.37 622.325 702.76 621.042 700.72 621.042 686.441 621.042 674.37 636.117 668.931 636.117 664.171 636.117 663.49 611.57 663.49 604.834 663.49 574.043 675.901 549.893 687.63 549.893 704.29 549.893 709.391 562.968 712.28 562.968 714.49 562.968 725.37 517.064 725.37 514.498 725.37 508.083 719.25 509.046 717.211 509.046 L650.23 514.046 C645.3 514.046 635.951 684.228 635.951 727.207 636.8 792.317 634.08 803.543 643.09 802.901 Z" fill="#ff2600" fill-opacity="1" stroke="none"/>
  <path id="path-6" d="M605.622 801.876 C607.662 801.876 612.932 803.48 612.932 797.066 612.932 795.462 619.302 733.562 616.072 733.562 611.822 733.562 592.302 766.824 576.662 766.824 567.312 766.824 567.112 750.24 567.112 705.98 567.112 617.461 592.832 525.505 592.832 518.449 592.832 512.676 588.792 512.035 587.602 512.035 L558.572 516.035 C553.642 516.035 537.292 704.209 537.292 747.186 538.142 812.293 528.422 811.518 537.432 810.876 Z" fill="#ff2600" fill-opacity="1" stroke="none"/>
  <path id="path-7" d="M469.023 665.955 C464.093 665.955 463.753 658.898 463.753 651.199 463.583 577.421 477.613 558.892 489.853 558.892 500.053 558.892 506.253 581.27 506.253 603.403 506.253 626.499 477.863 665.955 469.023 665.955 Z M447.943 526.04 C445.053 526.04 436.488 544.266 436.213 702.73 436.029 808.275 426.313 818.913 430.563 818.913 L459.173 807.926 C460.363 807.926 468.273 805.887 468.273 802.04 468.273 800.115 467.323 762.98 467.323 736.035 467.323 695.617 533.799 670.107 533.799 584.139 533.799 565.213 534.019 518.04 506.133 518.04 Z" fill="#ff2600" fill-opacity="1" stroke="none"/>
  <path id="path-8" d="M362.959 660.213 C358.028 660.213 357.689 649.684 357.689 642.562 357.518 574.31 367.548 567.046 379.788 567.046 389.989 567.046 400.189 577.871 400.189 598.347 400.189 619.713 371.798 660.213 362.959 660.213 Z M341.879 537.029 C338.989 537.029 323.407 537.082 334.149 683.282 342.324 794.564 342.248 809.925 346.498 809.925 L371.109 814.925 C372.298 814.925 376.209 815.816 376.209 812.255 376.209 810.474 363.258 750.271 363.258 725.344 363.258 687.953 427.729 655.38 427.729 575.851 427.729 558.342 421.949 529.029 394.068 529.029 Z" fill="#ff2600" fill-opacity="1" stroke="none"/>
  <path id="path-9" d="M310.626 770.009 C315.726 770.009 316.036 771.214 316.036 699.972 316.036 576.167 271.176 547.012 265.566 547.012 258.086 547.012 208.605 585.109 208.605 699.309 208.605 733.995 210.976 758.009 219.646 758.009 L243.956 756.009 C246.166 756.009 247.186 755.743 247.186 754.142 247.186 750.139 236.136 729.46 236.136 708.38 236.136 677.963 260.786 673.694 276.256 673.694 283.906 673.694 291.216 678.23 291.216 690.237 291.216 720.654 278.126 745.337 278.126 752.807 278.126 756.81 283.056 757.009 284.586 757.009 Z M267.246 577.638 C273.706 577.638 286.286 612.325 286.286 628.868 286.286 636.339 283.566 637.673 277.616 637.673 262.656 637.673 246.166 644.61 243.106 644.61 241.066 644.61 239.876 642.743 239.876 639.541 239.876 620.063 258.066 577.638 267.246 577.638 Z" fill="#ff2600" fill-opacity="1" stroke="none"/>
 </g>
</svg>
